<svg enable-background="new 0 0 512 512" viewBox="0 0 512 512" xmlns="http://www.w3.org/2000/svg"><path d="m151.373 136.805 55.838-27.427 155.876 317.348c12.691 25.838 3.108 56.823-21.316 71.17-1.93 1.134-4.417.439-5.441-1.552z" fill="#b9c5c6"/><path d="m180.542 502.578c-1.011 2.084-3.57 2.87-5.591 1.739-24.664-13.801-34.92-44.492-22.861-70.577l148.355-320.933 56.469 26.103z" fill="#dce2e2"/><path d="m472.622 59.043c-6.593-22.32-21.255-39.712-41.285-48.971-9.808-4.534-20.308-6.833-31.21-6.833-33.268 0-64.61 21.299-79.848 54.263-1.102 2.384-2.078 4.79-2.974 7.207l-47.997 103.828c-2.034 4.401-2.237 9.431-.563 13.981 1.674 4.551 5.086 8.251 9.487 10.286l35.179 16.262c2.429 1.122 5.048 1.687 7.672 1.687 2.133 0 4.271-.373 6.311-1.124 4.551-1.673 8.25-5.086 10.285-9.488l13.735-29.712c1.528.844 3.081 1.656 4.687 2.398 9.808 4.533 20.308 6.832 31.21 6.832 33.268 0 64.609-21.299 79.847-54.262 9.861-21.332 11.802-44.897 5.464-66.354zm-38.656 51.013c-9.135 19.762-27.885 33.039-46.655 33.039-5.565 0-10.903-1.163-15.867-3.458-16.86-7.794-25.554-26.964-23.376-47.377 1.317-7.114 3.816-15.207 8.029-24.319.074-.16.127-.325.196-.486 9.837-16.748 26.827-27.648 43.836-27.648 5.565 0 10.903 1.163 15.867 3.458 10.336 4.778 17.992 14.061 21.56 26.138 3.821 12.94 2.547 27.378-3.59 40.653z" fill="#ff473e"/><path d="m241.449 164.018-50.434-102.679c-.952-2.392-1.983-4.771-3.139-7.125-15.631-31.824-46.758-52.387-79.3-52.387-11.544 0-22.594 2.552-32.844 7.586-40.042 19.669-54.887 71.768-33.093 116.139 15.631 31.823 46.758 52.387 79.299 52.387h.001c11.543 0 22.594-2.552 32.843-7.586 1.588-.78 3.122-1.629 4.63-2.508l14.431 29.38c3.178 6.47 9.671 10.227 16.424 10.227 2.706 0 5.454-.604 8.046-1.877l34.785-17.085c4.352-2.138 7.677-5.917 9.243-10.506 1.567-4.591 1.245-9.614-.892-13.966zm-119.51-22.645c-18.705 0-36.949-12.539-46.479-31.942-12.905-26.273-5.551-56.417 16.394-67.197 5.189-2.549 10.815-3.841 16.723-3.841 16.916 0 33.455 10.257 43.513 26.571.08.175.142.354.227.529 4.426 9.011 7.115 17.044 8.599 24.125 2.658 20.356-5.581 39.724-22.254 47.914-5.189 2.549-10.816 3.841-16.723 3.841z" fill="#ff473e"/><path d="m263.09 296.862c-10.502 3.862-22.146-1.521-26.008-12.023s1.521-22.146 12.023-26.008 22.146 1.521 26.008 12.023-1.521 22.146-12.023 26.008z" fill="#b9c5c6"/></svg>